REM COMMENT "Generated by IcecastMetadataRecorder https://github.com/eshaz/icecast-metadata-js"
REM BR "16"
REM METAINT "64"
REM DATE "2020-07-29T21:16:11.222Z"
TITLE "isics-all"
FILE "isics-all.mp3" WAVE
  TRACK 1 AUDIO
    TITLE "2020-07-29T21:30:50.270Z TO:7300 Department of Transportation - District 1 Highway Helper - Des Moines Area FROM:14948"
    INDEX 01 14:39:04
  TRACK 2 AUDIO
    TITLE "2020-07-29T21:30:52.358Z TO:7300 Department of Transportation - District 1 Highway Helper - Des Moines Area FROM:14966"
    INDEX 01 14:41:10
  TRACK 3 AUDIO
    TITLE "2020-07-29T21:30:54.446Z TO:1101 Polk County - Westcom Law Enforcement 1 FROM:1004"
    INDEX 01 14:43:17
  TRACK 4 AUDIO
    TITLE "2020-07-29T21:30:56.534Z TO:7300 Department of Transportation - District 1 Highway Helper - Des Moines Area FROM:14948"
    INDEX 01 14:45:23
  TRACK 5 AUDIO
    TITLE "2020-07-29T21:31:17.558Z TO:1101 Polk County - Westcom Law Enforcement 1 FROM:8633"
    INDEX 01 15:06:25
  TRACK 6 AUDIO
    TITLE "2020-07-29T21:31:19.646Z TO:7300 Department of Transportation - District 1 Highway Helper - Des Moines Area FROM:14966"
    INDEX 01 15:08:32
  TRACK 7 AUDIO
    TITLE "2020-07-29T21:31:22.454Z TO:1101 Polk County - Westcom Law Enforcement 1 FROM:1004"
    INDEX 01 15:11:17
  TRACK 8 AUDIO
    TITLE "2020-07-29T21:31:32.246Z TO:7300 Department of Transportation - District 1 Highway Helper - Des Moines Area FROM:14948"
    INDEX 01 15:21:02
  TRACK 9 AUDIO
    TITLE "2020-07-29T21:31:35.774Z TO:1101 Polk County - Westcom Law Enforcement 1 FROM:8633"
    INDEX 01 15:24:41
  TRACK 10 AUDIO
    TITLE "END"
    INDEX 01 15:26:48